<svg version="1.1" xmlns="http://www.w3.org/2000/svg" viewBox="-14.502416129357776 -14.019472970964971 25.03370646415057 28.731740482908823" fill="none" stroke="black" stroke-width="0.6%" vector-effect="non-scaling-stroke">
    <path d="M 4.53575 -9.80371 A 11 4.54224 360 0 1 8.49758 -6.31293 A 11 4.54224 360 0 1 6.41144 -3.65143 A 11 4.54224 360 0 1 -13.50242 -6.31293 A 11 4.54224 360 0 1 3.32023 -10.16664" />
    <path d="M 8.31576 -13.01947 L 3.32023 -10.16664" />
    <path d="M 9.53129 -12.65654 L 8.31576 -13.01947" />
    <path d="M 4.53575 -9.80371 L 9.53129 -12.65654" />
    <path d="M 0.33381 -5.46609 A 3.5 1.44526 180 0 0 0.99758 -6.31293 A 3.5 1.44526 180 0 0 -6.00242 -6.31293 A 3.5 1.44526 180 0 0 0.33381 -5.46609 Z" />
    <path d="M 6.41144 11.83153 A 11 4.54224 360 0 1 -13.50242 9.17002" />
    <path d="M 8.49758 9.17002 A 11 4.54224 360 0 1 6.41144 11.83153 L 6.41144 -3.65143" />
    <path d="M 9.53129 -11.2904 L 9.53129 -12.65654" />
    <path d="M 5.92617 -9.2316 L 9.53129 -11.2904" />
    <path d="M 8.49758 3.41674 L 9.53129 2.82642 L 9.53129 1.46027 L 8.49758 1.15163" />
    <path d="M 8.49758 2.0506 L 9.53129 1.46027" />
    <path d="M -13.50242 -6.31293 L -13.50242 9.17002" />
    <path d="M 8.49758 -6.31293 L 8.49758 9.17002" />
</svg>