<svg version="1.1" xmlns="http://www.w3.org/2000/svg" viewBox="-11.982380980682082 -13.732172311982987 24.000002 27.48126211562282" fill="none" stroke="black" stroke-width="0.6%" vector-effect="non-scaling-stroke">
    <path d="M 11.01762 7.46242 A 11 5.28667 0 0 1 -10.98238 7.46242" />
    <path d="M -7.76494 -11.18163 A 11 5.28667 0 0 1 11.01762 -7.4455 A 11 5.28667 0 0 1 -10.98238 -7.4455 A 11 5.28667 0 0 1 -7.76494 -11.18163 Z" />
    <path d="M 2.49389 -6.25673 A 3.5 1.68212 180 0 0 3.51762 -7.4455 A 3.5 1.68212 180 0 0 -3.48238 -7.4455 A 3.5 1.68212 180 0 0 2.49389 -6.25673 Z" />
    <path d="M -10.98238 -7.4455 L -10.98238 7.46242" />
    <path d="M 11.01762 -7.4455 L 11.01762 7.46242" />
</svg>