<svg version="1.1" xmlns="http://www.w3.org/2000/svg" viewBox="-12.000000999999997 -13.74146426092369 24.000002000000006 27.48292852184738" fill="none" stroke="black" stroke-width="0.6%" vector-effect="non-scaling-stroke">
    <path d="M 11 7.45335 A 11 5.28812 0 0 1 7.7616 11.20056 A 11 5.28812 0 0 1 -11 7.45335" />
    <path d="M -7.7616 -11.20056 A 11 5.28812 0 0 1 11 -7.45335 A 11 5.28812 0 0 1 7.7616 -3.70613 A 11 5.28812 0 0 1 -11 -7.45335 A 11 5.28812 0 0 1 -7.7616 -11.20056 Z" />
    <path d="M 2.4696 -6.26105 A 3.5 1.68258 0 0 1 -3.5 -7.45335 A 3.5 1.68258 0 0 1 -2.4696 -8.64564 A 3.5 1.68258 0 0 1 3.5 -7.45335 A 3.5 1.68258 0 0 1 2.4696 -6.26105 Z" />
    <path d="M 11 -7.45335 L 11 7.45335" />
    <path d="M -11 -7.45335 L -11 7.45335" />
</svg>